<?xml version="1.0" encoding="UTF-8" standalone="no"?>
<!-- Created with Inkscape (http://www.inkscape.org/) -->
<svg
   xmlns:dc="http://purl.org/dc/elements/1.1/"
   xmlns:cc="http://creativecommons.org/ns#"
   xmlns:rdf="http://www.w3.org/1999/02/22-rdf-syntax-ns#"
   xmlns:svg="http://www.w3.org/2000/svg"
   xmlns="http://www.w3.org/2000/svg"
   xmlns:xlink="http://www.w3.org/1999/xlink"
   xmlns:sodipodi="http://sodipodi.sourceforge.net/DTD/sodipodi-0.dtd"
   xmlns:inkscape="http://www.inkscape.org/namespaces/inkscape"
   width="210mm"
   height="297mm"
   id="svg2"
   sodipodi:version="0.32"
   inkscape:version="0.46"
   sodipodi:docname="botones.svg"
   inkscape:output_extension="org.inkscape.output.svg.inkscape">
  <defs
     id="defs4">
    <linearGradient
       inkscape:collect="always"
       id="linearGradient3281">
      <stop
         style="stop-color:#990000;stop-opacity:1"
         offset="0"
         id="stop3283" />
      <stop
         style="stop-color:#5e0000;stop-opacity:1"
         offset="1"
         id="stop3285" />
    </linearGradient>
    <linearGradient
       inkscape:collect="always"
       id="linearGradient3231">
      <stop
         style="stop-color:#ffffff;stop-opacity:1;"
         offset="0"
         id="stop3233" />
      <stop
         style="stop-color:#dddddd;stop-opacity:1"
         offset="1"
         id="stop3235" />
    </linearGradient>
    <linearGradient
       inkscape:collect="always"
       id="linearGradient3223">
      <stop
         style="stop-color:#ffffff;stop-opacity:1;"
         offset="0"
         id="stop3225" />
      <stop
         style="stop-color:#dbdbdb;stop-opacity:1"
         offset="1"
         id="stop3227" />
    </linearGradient>
    <linearGradient
       id="linearGradient3211"
       inkscape:collect="always">
      <stop
         id="stop3213"
         offset="0"
         style="stop-color:#9fff62;stop-opacity:1" />
      <stop
         id="stop3215"
         offset="1"
         style="stop-color:#278100;stop-opacity:1" />
    </linearGradient>
    <linearGradient
       inkscape:collect="always"
       id="linearGradient3187">
      <stop
         style="stop-color:#990000;stop-opacity:1"
         offset="0"
         id="stop3189" />
      <stop
         style="stop-color:#5e0000;stop-opacity:1"
         offset="1"
         id="stop3191" />
    </linearGradient>
    <inkscape:perspective
       sodipodi:type="inkscape:persp3d"
       inkscape:vp_x="0 : 526.18109 : 1"
       inkscape:vp_y="0 : 1000 : 0"
       inkscape:vp_z="744.09448 : 526.18109 : 1"
       inkscape:persp3d-origin="372.04724 : 350.78739 : 1"
       id="perspective10" />
    <filter
       inkscape:collect="always"
       id="filter3175">
      <feGaussianBlur
         inkscape:collect="always"
         stdDeviation="5.4520191"
         id="feGaussianBlur3177" />
    </filter>
    <linearGradient
       inkscape:collect="always"
       xlink:href="#linearGradient3211"
       id="linearGradient3203"
       gradientUnits="userSpaceOnUse"
       x1="346.83835"
       y1="212.59125"
       x2="422.86023"
       y2="706.7334" />
    <linearGradient
       inkscape:collect="always"
       xlink:href="#linearGradient3187"
       id="linearGradient3217"
       gradientUnits="userSpaceOnUse"
       x1="346.83835"
       y1="212.59125"
       x2="422.86023"
       y2="706.7334" />
    <linearGradient
       inkscape:collect="always"
       xlink:href="#linearGradient3223"
       id="linearGradient3229"
       x1="98.919029"
       y1="61.999168"
       x2="145.18761"
       y2="230.69609"
       gradientUnits="userSpaceOnUse" />
    <linearGradient
       inkscape:collect="always"
       xlink:href="#linearGradient3231"
       id="linearGradient3237"
       x1="348.70706"
       y1="196.10594"
       x2="279.34723"
       y2="362.57101"
       gradientUnits="userSpaceOnUse" />
    <linearGradient
       inkscape:collect="always"
       xlink:href="#linearGradient3281"
       id="linearGradient3287"
       x1="276.5401"
       y1="296.32043"
       x2="279.02029"
       y2="414.95581"
       gradientUnits="userSpaceOnUse" />
    <filter
       inkscape:collect="always"
       id="filter3295">
      <feGaussianBlur
         inkscape:collect="always"
         stdDeviation="1.3132633"
         id="feGaussianBlur3297" />
    </filter>
    <linearGradient
       inkscape:collect="always"
       xlink:href="#linearGradient3281"
       id="linearGradient3331"
       gradientUnits="userSpaceOnUse"
       x1="276.5401"
       y1="296.32043"
       x2="279.02029"
       y2="414.95581" />
    <linearGradient
       inkscape:collect="always"
       xlink:href="#linearGradient3281"
       id="linearGradient3336"
       gradientUnits="userSpaceOnUse"
       x1="276.5401"
       y1="296.32043"
       x2="279.02029"
       y2="414.95581"
       gradientTransform="translate(0,180)" />
    <linearGradient
       inkscape:collect="always"
       xlink:href="#linearGradient3281"
       id="linearGradient3340"
       gradientUnits="userSpaceOnUse"
       x1="276.5401"
       y1="296.32043"
       x2="279.02029"
       y2="414.95581" />
    <linearGradient
       inkscape:collect="always"
       xlink:href="#linearGradient3281"
       id="linearGradient3345"
       gradientUnits="userSpaceOnUse"
       x1="276.5401"
       y1="296.32043"
       x2="279.02029"
       y2="414.95581" />
  </defs>
  <sodipodi:namedview
     id="base"
     pagecolor="#ffffff"
     bordercolor="#666666"
     borderopacity="1.0"
     inkscape:pageopacity="0.0"
     inkscape:pageshadow="2"
     inkscape:zoom="0.54626613"
     inkscape:cx="400.46251"
     inkscape:cy="908.61911"
     inkscape:document-units="px"
     inkscape:current-layer="layer1"
     showgrid="false"
     inkscape:window-width="906"
     inkscape:window-height="745"
     inkscape:window-x="0"
     inkscape:window-y="25" />
  <metadata
     id="metadata7">
    <rdf:RDF>
      <cc:Work
         rdf:about="">
        <dc:format>image/svg+xml</dc:format>
        <dc:type
           rdf:resource="http://purl.org/dc/dcmitype/StillImage" />
      </cc:Work>
    </rdf:RDF>
  </metadata>
  <g
     inkscape:label="Capa 1"
     inkscape:groupmode="layer"
     id="layer1">
    <rect
       style="opacity:1;fill:#ffffff;fill-opacity:1;fill-rule:nonzero;stroke:none;stroke-width:0.99999994000000003;stroke-linecap:butt;stroke-linejoin:miter;stroke-miterlimit:4;stroke-dasharray:none;stroke-opacity:1"
       id="rect3271"
       width="250.47044"
       height="250.47044"
       x="8.9757967"
       y="12.737489"
       rx="0"
       ry="0"
       inkscape:export-filename="/home/danigmArch/Documentos/Projects/cusl3-geco/src/gecoc/web-geco/static/images/error.png"
       inkscape:export-xdpi="12.31"
       inkscape:export-ydpi="12.31" />
    <g
       id="g3265"
       inkscape:export-filename="/home/danigmArch/Documentos/Projects/cusl3-geco/src/gecoc/web-geco/static/images/error.png"
       inkscape:export-xdpi="12.31"
       inkscape:export-ydpi="12.31">
      <path
         sodipodi:type="arc"
         style="fill:#000000;fill-opacity:0.59401706;fill-rule:nonzero;stroke:#000000;stroke-width:2.3447907;stroke-linecap:butt;stroke-linejoin:miter;stroke-miterlimit:4;stroke-dasharray:none;stroke-opacity:1;filter:url(#filter3175)"
         id="path2391"
         sodipodi:cx="402.85715"
         sodipodi:cy="455.21933"
         sodipodi:rx="271.42856"
         sodipodi:ry="271.42856"
         d="M 674.28571,455.21933 A 271.42856,271.42856 0 1 1 131.42859,455.21933 A 271.42856,271.42856 0 1 1 674.28571,455.21933 z"
         transform="matrix(0.4264774,0,0,0.4264774,-37.306336,-56.503086)" />
      <path
         transform="matrix(0.4264774,0,0,0.4264774,-39.306336,-58.503086)"
         d="M 674.28571,455.21933 A 271.42856,271.42856 0 1 1 131.42859,455.21933 A 271.42856,271.42856 0 1 1 674.28571,455.21933 z"
         sodipodi:ry="271.42856"
         sodipodi:rx="271.42856"
         sodipodi:cy="455.21933"
         sodipodi:cx="402.85715"
         id="path2383"
         style="fill:url(#linearGradient3217);fill-opacity:1;fill-rule:nonzero;stroke:none;stroke-width:2.3447907;stroke-linecap:butt;stroke-linejoin:miter;stroke-miterlimit:4;stroke-dasharray:none;stroke-opacity:1"
         sodipodi:type="arc" />
      <text
         sodipodi:linespacing="125%"
         id="text2387"
         y="249.45706"
         x="148.51007"
         style="font-size:189.49346924000002446px;font-style:italic;font-variant:normal;font-weight:normal;font-stretch:normal;text-align:center;line-height:125%;writing-mode:lr-tb;text-anchor:middle;fill:url(#linearGradient3229);fill-opacity:1;stroke:none;stroke-width:1px;stroke-linecap:butt;stroke-linejoin:miter;stroke-opacity:1;font-family:Kid Kosmic;-inkscape-font-specification:Kid Kosmic Italic"
         xml:space="preserve"><tspan
           style="fill-opacity:1;fill:url(#linearGradient3229)"
           y="249.45706"
           x="148.51007"
           id="tspan2389"
           sodipodi:role="line">x</tspan></text>
    </g>
    <rect
       ry="0"
       rx="0"
       y="12.737489"
       x="268.9758"
       height="250.47044"
       width="250.47044"
       id="rect3273"
       style="opacity:1;fill:#ffffff;fill-opacity:1;fill-rule:nonzero;stroke:none;stroke-width:0.99999994000000003;stroke-linecap:butt;stroke-linejoin:miter;stroke-miterlimit:4;stroke-dasharray:none;stroke-opacity:1"
       inkscape:export-filename="/home/danigmArch/Documentos/Projects/cusl3-geco/src/gecoc/web-geco/static/images/alert.png"
       inkscape:export-xdpi="12.217011"
       inkscape:export-ydpi="12.217011" />
    <g
       id="g3259"
       inkscape:export-filename="/home/danigmArch/Documentos/Projects/cusl3-geco/src/gecoc/web-geco/static/images/alert.png"
       inkscape:export-xdpi="12.31"
       inkscape:export-ydpi="12.31">
      <path
         transform="matrix(0.4264774,0,0,0.4264774,222.69366,-56.503086)"
         d="M 674.28571,455.21933 A 271.42856,271.42856 0 1 1 131.42859,455.21933 A 271.42856,271.42856 0 1 1 674.28571,455.21933 z"
         sodipodi:ry="271.42856"
         sodipodi:rx="271.42856"
         sodipodi:cy="455.21933"
         sodipodi:cx="402.85715"
         id="path3195"
         style="opacity:1;fill:#000000;fill-opacity:0.59401706;fill-rule:nonzero;stroke:#000000;stroke-width:2.3447907;stroke-linecap:butt;stroke-linejoin:miter;stroke-miterlimit:4;stroke-dasharray:none;stroke-opacity:1;filter:url(#filter3175)"
         sodipodi:type="arc" />
      <path
         sodipodi:type="arc"
         style="opacity:1;fill:url(#linearGradient3203);fill-opacity:1;fill-rule:nonzero;stroke:none;stroke-width:2.3447907;stroke-linecap:butt;stroke-linejoin:miter;stroke-miterlimit:4;stroke-dasharray:none;stroke-opacity:1"
         id="path3197"
         sodipodi:cx="402.85715"
         sodipodi:cy="455.21933"
         sodipodi:rx="271.42856"
         sodipodi:ry="271.42856"
         d="M 674.28571,455.21933 A 271.42856,271.42856 0 1 1 131.42859,455.21933 A 271.42856,271.42856 0 1 1 674.28571,455.21933 z"
         transform="matrix(0.4264774,0,0,0.4264774,220.69366,-58.503086)" />
      <text
         transform="matrix(0.9233811,-0.3838846,0.3838846,0.9233811,0,0)"
         xml:space="preserve"
         style="font-size:189.49346924000002446px;font-style:italic;font-variant:normal;font-weight:normal;font-stretch:normal;text-align:center;line-height:125%;writing-mode:lr-tb;text-anchor:middle;fill:url(#linearGradient3237);fill-opacity:1;stroke:none;stroke-width:1px;stroke-linecap:butt;stroke-linejoin:miter;stroke-opacity:1;font-family:Kid Kosmic;-inkscape-font-specification:Kid Kosmic Italic"
         x="327.6069"
         y="391.83456"
         id="text3199"
         sodipodi:linespacing="125%"><tspan
           style="fill-opacity:1;fill:url(#linearGradient3237)"
           sodipodi:role="line"
           id="tspan3201"
           x="327.6069"
           y="391.83456">!</tspan></text>
    </g>
    <rect
       style="fill:#ffffff;fill-opacity:1;fill-rule:nonzero;stroke:none;stroke-width:1.00000036;stroke-linecap:butt;stroke-linejoin:miter;stroke-miterlimit:4;stroke-dasharray:none;stroke-opacity:0.15384617"
       id="rect3310"
       width="557.28308"
       height="156.89272"
       x="50.352974"
       y="281.90924"
       rx="0"
       ry="0"
       inkscape:export-filename="/home/danigmArch/Documentos/Projects/cusl3-geco/src/gecoc/web-geco/static/images/accbutton.png"
       inkscape:export-xdpi="19.379999"
       inkscape:export-ydpi="19.379999" />
    <rect
       rx="23.797922"
       ry="23.797924"
       y="298.32043"
       x="62.41011"
       height="126.31206"
       width="538.19916"
       id="rect3289"
       style="fill:#808080;fill-opacity:1;fill-rule:nonzero;stroke:none;stroke-width:1;stroke-linecap:butt;stroke-linejoin:miter;stroke-miterlimit:4;stroke-dasharray:none;stroke-opacity:1;filter:url(#filter3295)" />
    <rect
       style="fill:url(#linearGradient3345);fill-opacity:1;fill-rule:nonzero;stroke:none;stroke-width:1;stroke-linecap:butt;stroke-linejoin:miter;stroke-miterlimit:4;stroke-dasharray:none;stroke-opacity:1"
       id="rect3275"
       width="538.19916"
       height="126.31206"
       x="60.41011"
       y="296.32043"
       ry="23.797924"
       rx="23.797922" />
    <text
       xml:space="preserve"
       style="font-size:77.04286956999999347px;font-style:normal;font-variant:normal;font-weight:normal;font-stretch:normal;text-align:center;line-height:100%;writing-mode:lr-tb;text-anchor:middle;fill:#ffffff;fill-opacity:1;stroke:none;stroke-width:1px;stroke-linecap:butt;stroke-linejoin:miter;stroke-opacity:0.15384617000000000;font-family:Orange;-inkscape-font-specification:Orange"
       x="328.36511"
       y="382.57376"
       id="text3277"
       sodipodi:linespacing="100%"><tspan
         sodipodi:role="line"
         x="328.36511"
         y="382.57376"
         id="tspan3299">Acceder</tspan></text>
    <rect
       ry="0"
       rx="0"
       y="461.90924"
       x="50.352974"
       height="156.89272"
       width="557.28308"
       id="rect3321"
       style="fill:#ffffff;fill-opacity:1;fill-rule:nonzero;stroke:none;stroke-width:1.00000036;stroke-linecap:butt;stroke-linejoin:miter;stroke-miterlimit:4;stroke-dasharray:none;stroke-opacity:0.15384617"
       inkscape:export-filename="/home/danigmArch/Documentos/Projects/cusl3-geco/src/gecoc/web-geco/static/images/regbutton.png"
       inkscape:export-xdpi="19.379999"
       inkscape:export-ydpi="19.379999" />
    <rect
       style="fill:#808080;fill-opacity:1;fill-rule:nonzero;stroke:none;stroke-width:1;stroke-linecap:butt;stroke-linejoin:miter;stroke-miterlimit:4;stroke-dasharray:none;stroke-opacity:1;filter:url(#filter3295)"
       id="rect3323"
       width="538.19916"
       height="126.31206"
       x="62.41011"
       y="478.32043"
       ry="23.797924"
       rx="23.797922" />
    <rect
       rx="23.797922"
       ry="23.797924"
       y="476.32043"
       x="60.41011"
       height="126.31206"
       width="538.19916"
       id="rect3325"
       style="fill:url(#linearGradient3336);fill-opacity:1;fill-rule:nonzero;stroke:none;stroke-width:1;stroke-linecap:butt;stroke-linejoin:miter;stroke-miterlimit:4;stroke-dasharray:none;stroke-opacity:1" />
    <path
       style="font-size:66.24617004px;font-style:normal;font-variant:normal;font-weight:normal;font-stretch:normal;text-align:center;line-height:100%;writing-mode:lr-tb;text-anchor:middle;fill:#ffffff;fill-opacity:1;stroke:none;stroke-width:1.00000036px;stroke-linecap:butt;stroke-linejoin:miter;stroke-opacity:0.15384617;font-family:Orange;-inkscape-font-specification:Orange"
       d="M 143.3125 510.5625 C 141.64462 510.56801 139.89531 510.66345 138.0625 510.8125 L 138.0625 510.9375 L 131.8125 511.0625 L 134.75 573.875 L 147.78125 573.09375 L 147.25 548.1875 C 147.38248 548.18751 149.80568 551.45079 154.53125 558.03125 C 162.48076 569.11644 166.50539 574.6379 166.59375 574.59375 C 168.05113 574.28459 171.95283 572.18059 178.3125 568.25 C 178.44494 568.20583 175.96673 565.62301 170.84375 560.5 C 160.86263 550.65141 155.92998 545.70044 156.0625 545.65625 C 157.16658 545.17046 158.19753 544.65496 159.125 544.125 C 165.57293 540.50356 168.60327 535.47927 168.25 529.03125 C 168.07331 526.02813 167.41114 523.34073 166.21875 521 C 162.62487 514.00555 154.98768 510.5239 143.3125 510.5625 z M 295.0625 511.34375 C 291.75018 511.3438 288.95278 512.32515 286.65625 514.3125 C 284.71302 515.99078 283.59038 518.0031 283.28125 520.34375 C 282.83961 523.56777 283.96224 526.34681 286.65625 528.6875 C 288.51113 530.23328 290.71974 531.17796 293.28125 531.53125 C 297.256 532.01709 300.64222 531.05407 303.46875 528.625 L 303.75 528.375 C 305.51654 526.74096 306.53458 524.80199 306.84375 522.59375 C 307.2412 519.36981 306.10023 516.60906 303.40625 514.3125 C 301.10969 512.32517 298.33062 511.34379 295.0625 511.34375 z M 356.59375 511.40625 C 356.06378 518.91419 355.83082 522.12249 355.875 521.0625 C 354.85922 535.23921 354.66294 545.22745 355.28125 550.96875 C 356.0762 558.69747 358.49939 564.70319 362.5625 569.03125 C 366.53726 573.27099 371.18737 575.32001 376.53125 575.1875 C 381.69842 575.09916 386.23851 573.1181 390.125 569.1875 C 394.58553 564.59443 396.79412 558.80875 396.75 551.875 L 386.71875 550.6875 C 386.49789 552.36575 385.99534 553.86255 385.15625 555.1875 C 383.47798 557.79319 381.14646 559.23502 378.1875 559.5 C 374.78684 559.76499 371.98944 558.34148 369.78125 555.25 C 366.02729 550.03865 365.37055 541.70146 367.84375 530.21875 L 384.75 532 L 385.34375 521.75 L 367.84375 521.15625 L 368.4375 512 L 356.59375 511.40625 z M 296.125 517.5625 C 297.62656 517.56254 298.90878 517.93673 299.96875 518.6875 C 300.54286 519.08502 300.95374 519.5638 301.21875 520.09375 C 301.92535 521.50704 301.55115 522.72133 300.09375 523.78125 L 299.96875 523.9375 C 299.43876 524.24669 298.86828 524.49797 298.25 524.71875 C 295.99761 525.33708 294.02197 525.08583 292.34375 523.9375 C 291.68128 523.4959 291.23373 522.96211 290.96875 522.34375 C 290.35044 520.93054 290.77966 519.7033 292.28125 518.6875 C 293.34117 517.93675 294.6234 517.56256 296.125 517.5625 z M 146.59375 520.9375 C 150.5685 521.68833 152.88168 524.16113 153.5 528.3125 C 154.2066 532.9056 152.03469 535.97263 147 537.5625 L 146.59375 520.9375 z M 233.5 526.71875 L 230.5 534.84375 L 240.25 543.59375 C 239.05756 544.34456 237.95326 545.19756 236.9375 546.125 C 236.76084 546.25751 236.58289 546.39878 236.40625 546.53125 C 232.25482 550.59436 230.22417 555.4224 230.3125 561.03125 C 230.40083 566.64009 232.60941 571.41315 236.9375 575.34375 L 237.1875 575.59375 C 233.69853 576.60951 230.6315 577.91007 227.9375 579.5 C 226.39176 580.42743 225.00493 581.44004 223.8125 582.5 C 219.17528 586.56307 217.23088 591.03523 217.9375 595.9375 C 218.29512 598.33558 219.24131 600.56757 220.78125 602.625 L 239.90625 602.625 C 238.03934 601.44626 236.66999 599.98814 235.8125 598.25 C 234.88505 596.39507 234.52917 594.66528 234.75 593.03125 C 235.01498 590.82302 236.65308 588.22191 239.65625 585.21875 C 242.0411 582.83387 245.26773 581.68 249.375 581.8125 L 254.625 582.21875 C 255.77324 582.21873 257.07382 582.35998 258.53125 582.625 C 263.9634 583.77325 268.27599 585.9635 271.5 589.1875 C 273.39901 591.13069 274.55288 592.64587 274.90625 593.75 C 275.39201 595.47237 274.37939 597.44799 271.90625 599.65625 C 270.65563 600.80874 269.25124 601.78563 267.6875 602.625 L 284.125 602.625 C 286.64121 599.37601 287.57703 595.89268 286.9375 592.15625 C 286.14249 587.20984 282.81128 582.98894 276.9375 579.5 C 274.4201 577.9984 271.58602 576.78409 268.40625 575.8125 L 268.9375 575.34375 L 269.53125 574.8125 C 273.63847 570.74939 275.65079 565.93967 275.5625 560.375 C 275.47412 554.81033 273.26553 550.03731 268.9375 546.0625 C 264.52105 542.04359 259.17753 540.03128 252.90625 540.03125 C 251.97878 540.03127 250.94783 540.08629 249.84375 540.21875 L 233.5 526.71875 z M 199.8125 536.59375 C 195.88533 536.82082 192.28469 538.62324 189 542.0625 C 182.64036 550.10037 180.57304 557.36454 182.78125 563.8125 C 184.23866 568.18471 187.41028 571.46095 192.3125 573.625 C 197.61218 575.92154 203.23824 576.24614 209.15625 574.65625 C 215.91333 572.80137 221.06058 568.80797 224.59375 562.625 C 225.03534 561.8742 225.42789 561.12579 225.78125 560.375 C 224.36796 561.03746 221.52096 561.23374 217.28125 560.96875 C 215.11717 560.83628 213.56533 560.76834 212.59375 560.8125 C 210.34135 564.65475 207.42102 566.43414 203.84375 566.125 C 201.23804 565.90416 199.18906 564.76321 197.6875 562.6875 C 196.09758 560.52347 195.99298 558.45614 197.40625 556.46875 C 197.58289 556.24792 197.81041 556.00208 198.03125 555.78125 L 219.625 552.40625 C 219.22748 547.63652 216.68136 543.6615 212 540.4375 C 208.55517 538.05269 205.06435 536.77043 201.53125 536.59375 C 200.95711 536.56063 200.37352 536.56131 199.8125 536.59375 z M 325.125 536.84375 C 323.98778 536.90171 322.87244 537.0696 321.8125 537.3125 C 316.5128 538.50496 314.10794 541.95913 314.59375 547.65625 C 314.63791 548.05374 314.72418 548.4463 314.8125 548.84375 C 315.34246 551.53777 317.17684 553.85639 320.3125 555.84375 L 326.9375 559.5625 C 330.42644 561.54989 332.19289 563.15129 332.28125 564.34375 C 332.36956 565.40369 331.2286 565.91918 328.84375 565.875 C 324.64814 565.7425 319.69717 564.21439 314 561.34375 L 312.875 572.34375 C 317.99803 574.33112 323.34156 575.39876 328.90625 575.53125 C 335.92832 575.66373 341.16184 574.41818 344.5625 571.8125 C 345.09243 571.41501 345.55832 570.96748 346 570.4375 C 348.38482 567.74348 349.20116 564.7498 348.40625 561.4375 C 347.25795 556.93277 343.28832 553.33735 336.53125 550.6875 C 329.59746 547.90518 326.14332 545.92955 326.1875 544.78125 C 326.23165 543.98631 327.71014 543.85794 330.625 544.34375 C 334.86473 545.09456 338.55181 546.52345 341.6875 548.6875 L 341.09375 541.03125 C 339.7688 540.23632 338.21696 539.50625 336.40625 538.84375 C 332.29897 537.35323 328.53667 536.66986 325.125 536.84375 z M 426.75 537.1875 C 423.29692 537.19216 419.04939 539.0357 414.03125 542.6875 L 413.375 537.96875 L 401.3125 538.78125 L 400.71875 575.40625 C 401.55786 575.4504 402.64384 575.46873 403.96875 575.46875 C 408.91512 575.38041 411.63919 575.36205 412.125 575.40625 C 412.16915 573.90466 412.20581 572.46283 412.25 571.09375 C 412.82412 559.47859 414.64015 552.26399 417.6875 549.4375 C 419.23322 548.02426 420.6934 548.07926 422.0625 549.625 C 423.47573 551.30325 423.97827 553.67145 423.625 556.71875 L 436.96875 556.71875 C 437.27786 549.25503 436.06899 543.85648 433.375 540.5 C 431.63602 538.29733 429.43573 537.18388 426.75 537.1875 z M 512.90625 537.1875 C 509.45317 537.19216 505.23689 539.0357 500.21875 542.6875 L 499.53125 537.96875 L 487.5 538.78125 L 486.90625 575.40625 C 487.74536 575.4504 488.80009 575.46873 490.125 575.46875 C 495.07137 575.38041 497.79544 575.36205 498.28125 575.40625 C 498.3254 573.90466 498.36206 572.46283 498.40625 571.09375 C 498.98037 559.47859 500.7964 552.26399 503.84375 549.4375 C 505.38947 548.02426 506.84965 548.07926 508.21875 549.625 C 509.63198 551.30325 510.16577 553.67145 509.8125 556.71875 L 523.125 556.71875 C 523.43411 549.25503 522.25649 543.85648 519.5625 540.5 C 517.82352 538.29733 515.59198 537.18388 512.90625 537.1875 z M 469.34375 537.25 L 469.09375 539.21875 C 467.37132 538.64464 465.57363 538.28874 463.71875 538.15625 C 457.80074 537.62631 452.63514 539.1727 448.21875 542.75 L 447.6875 543.21875 C 443.80105 546.57524 441.69707 550.69153 441.34375 555.59375 C 440.94627 560.89345 442.67606 565.54358 446.5625 569.5625 C 450.3606 573.4931 455.13365 575.64667 460.875 576 C 463.87814 576.22081 466.7618 575.84657 469.5 574.875 L 469.03125 575.59375 L 482.15625 575.59375 L 482.21875 556.96875 C 482.3512 555.90882 482.36953 554.87242 482.28125 553.8125 L 482.46875 538.84375 L 469.34375 537.25 z M 287.90625 538.375 L 286.4375 574.46875 L 300.96875 576 L 300.96875 538.375 L 287.90625 538.375 z M 200.03125 543.125 C 200.31901 543.09809 200.62835 543.08636 200.9375 543.125 C 203.14569 543.38999 205.12132 544.54388 206.84375 546.53125 C 199.37999 547.85619 195.60665 548.50001 195.5625 548.5 C 196.52858 545.0994 198.01694 543.3134 200.03125 543.125 z M 459.1875 550.5 C 459.50217 550.48413 459.82502 550.5 460.15625 550.5 C 463.86601 550.54418 466.78635 551.45221 468.90625 553.21875 C 469.92199 554.05788 470.60251 555.02089 471 556.125 L 471.09375 559.5625 C 470.65208 560.93159 469.69446 562.0542 468.28125 562.9375 C 466.38217 564.0416 463.54809 564.48372 459.75 564.21875 C 457.1443 564.08626 454.95406 563.26993 453.1875 561.8125 C 451.86256 560.7084 451.07748 559.44449 450.8125 558.03125 C 450.37085 555.69056 451.27888 553.74618 453.53125 552.15625 L 453.78125 552 C 455.17241 551.11121 456.9848 550.6111 459.1875 550.5 z M 254.96875 552.75 C 257.83939 552.75001 260.26257 553.48009 262.25 554.9375 C 263.79571 556.08577 264.7404 557.42301 265.09375 558.96875 C 265.71201 561.44194 264.84065 563.61385 262.5 565.46875 L 262.25 565.65625 C 260.83672 566.67202 259.16195 567.36542 257.21875 567.71875 C 253.5531 568.29288 250.36857 567.59947 247.71875 565.65625 C 246.08466 564.46382 245.12164 563.02196 244.8125 561.34375 C 244.32668 558.87056 245.2897 556.76659 247.71875 555 C 249.70611 553.49843 252.14223 552.74998 254.96875 552.75 z "
       id="text3349" />
  </g>
</svg>
