<?xml version="1.0" encoding="UTF-8" standalone="no"?>
<!-- Created with Inkscape (http://www.inkscape.org/) -->
<svg
   xmlns:dc="http://purl.org/dc/elements/1.1/"
   xmlns:cc="http://creativecommons.org/ns#"
   xmlns:rdf="http://www.w3.org/1999/02/22-rdf-syntax-ns#"
   xmlns:svg="http://www.w3.org/2000/svg"
   xmlns="http://www.w3.org/2000/svg"
   xmlns:xlink="http://www.w3.org/1999/xlink"
   xmlns:sodipodi="http://sodipodi.sourceforge.net/DTD/sodipodi-0.dtd"
   xmlns:inkscape="http://www.inkscape.org/namespaces/inkscape"
   width="210mm"
   height="297mm"
   id="svg2"
   sodipodi:version="0.32"
   inkscape:version="0.46"
   sodipodi:docname="botones.svg"
   inkscape:output_extension="org.inkscape.output.svg.inkscape">
  <defs
     id="defs4">
    <linearGradient
       inkscape:collect="always"
       id="linearGradient3320">
      <stop
         style="stop-color:#000000;stop-opacity:1;"
         offset="0"
         id="stop3322" />
      <stop
         style="stop-color:#ffffff;stop-opacity:1"
         offset="1"
         id="stop3324" />
    </linearGradient>
    <linearGradient
       inkscape:collect="always"
       id="linearGradient3272">
      <stop
         style="stop-color:#940000;stop-opacity:1"
         offset="0"
         id="stop3274" />
      <stop
         style="stop-color:#5e0000;stop-opacity:1"
         offset="1"
         id="stop3276" />
    </linearGradient>
    <linearGradient
       inkscape:collect="always"
       id="linearGradient3346">
      <stop
         style="stop-color:#b0b0b0;stop-opacity:0.34615386"
         offset="0"
         id="stop3348" />
      <stop
         style="stop-color:#000000;stop-opacity:0;"
         offset="1"
         id="stop3350" />
    </linearGradient>
    <linearGradient
       inkscape:collect="always"
       id="linearGradient3259">
      <stop
         style="stop-color:#910000;stop-opacity:1;"
         offset="0"
         id="stop3261" />
      <stop
         style="stop-color:#6b0000;stop-opacity:1"
         offset="1"
         id="stop3263" />
    </linearGradient>
    <linearGradient
       inkscape:collect="always"
       id="linearGradient2465">
      <stop
         style="stop-color:#aa0000;stop-opacity:1"
         offset="0"
         id="stop2467" />
      <stop
         style="stop-color:#7e0000;stop-opacity:1"
         offset="1"
         id="stop2469" />
    </linearGradient>
    <linearGradient
       inkscape:collect="always"
       id="linearGradient2443">
      <stop
         style="stop-color:#000000;stop-opacity:1"
         offset="0"
         id="stop2445" />
      <stop
         style="stop-color:#1a1a1a;stop-opacity:1"
         offset="1"
         id="stop2447" />
    </linearGradient>
    <linearGradient
       inkscape:collect="always"
       id="linearGradient3281">
      <stop
         style="stop-color:#990000;stop-opacity:1"
         offset="0"
         id="stop3283" />
      <stop
         style="stop-color:#5e0000;stop-opacity:1"
         offset="1"
         id="stop3285" />
    </linearGradient>
    <linearGradient
       inkscape:collect="always"
       id="linearGradient3231">
      <stop
         style="stop-color:#ffffff;stop-opacity:1;"
         offset="0"
         id="stop3233" />
      <stop
         style="stop-color:#dddddd;stop-opacity:1"
         offset="1"
         id="stop3235" />
    </linearGradient>
    <linearGradient
       inkscape:collect="always"
       id="linearGradient3223">
      <stop
         style="stop-color:#ffffff;stop-opacity:1;"
         offset="0"
         id="stop3225" />
      <stop
         style="stop-color:#dbdbdb;stop-opacity:1"
         offset="1"
         id="stop3227" />
    </linearGradient>
    <linearGradient
       id="linearGradient3211"
       inkscape:collect="always">
      <stop
         id="stop3213"
         offset="0"
         style="stop-color:#9fff62;stop-opacity:1" />
      <stop
         id="stop3215"
         offset="1"
         style="stop-color:#278100;stop-opacity:1" />
    </linearGradient>
    <linearGradient
       inkscape:collect="always"
       id="linearGradient3187">
      <stop
         style="stop-color:#990000;stop-opacity:1"
         offset="0"
         id="stop3189" />
      <stop
         style="stop-color:#5e0000;stop-opacity:1"
         offset="1"
         id="stop3191" />
    </linearGradient>
    <inkscape:perspective
       sodipodi:type="inkscape:persp3d"
       inkscape:vp_x="0 : 526.18109 : 1"
       inkscape:vp_y="0 : 1000 : 0"
       inkscape:vp_z="744.09448 : 526.18109 : 1"
       inkscape:persp3d-origin="372.04724 : 350.78739 : 1"
       id="perspective10" />
    <filter
       inkscape:collect="always"
       id="filter3175">
      <feGaussianBlur
         inkscape:collect="always"
         stdDeviation="5.4520191"
         id="feGaussianBlur3177" />
    </filter>
    <linearGradient
       inkscape:collect="always"
       xlink:href="#linearGradient3211"
       id="linearGradient3203"
       gradientUnits="userSpaceOnUse"
       x1="346.83835"
       y1="212.59125"
       x2="422.86023"
       y2="706.7334" />
    <linearGradient
       inkscape:collect="always"
       xlink:href="#linearGradient3187"
       id="linearGradient3217"
       gradientUnits="userSpaceOnUse"
       x1="346.83835"
       y1="212.59125"
       x2="422.86023"
       y2="706.7334" />
    <linearGradient
       inkscape:collect="always"
       xlink:href="#linearGradient3223"
       id="linearGradient3229"
       x1="98.919029"
       y1="61.999168"
       x2="145.18761"
       y2="230.69609"
       gradientUnits="userSpaceOnUse" />
    <linearGradient
       inkscape:collect="always"
       xlink:href="#linearGradient3231"
       id="linearGradient3237"
       x1="348.70706"
       y1="196.10594"
       x2="279.34723"
       y2="362.57101"
       gradientUnits="userSpaceOnUse" />
    <linearGradient
       inkscape:collect="always"
       xlink:href="#linearGradient3281"
       id="linearGradient3287"
       x1="276.5401"
       y1="296.32043"
       x2="279.02029"
       y2="414.95581"
       gradientUnits="userSpaceOnUse" />
    <filter
       inkscape:collect="always"
       id="filter3295">
      <feGaussianBlur
         inkscape:collect="always"
         stdDeviation="1.3132633"
         id="feGaussianBlur3297" />
    </filter>
    <linearGradient
       inkscape:collect="always"
       xlink:href="#linearGradient3281"
       id="linearGradient3331"
       gradientUnits="userSpaceOnUse"
       x1="276.5401"
       y1="296.32043"
       x2="279.02029"
       y2="414.95581" />
    <linearGradient
       inkscape:collect="always"
       xlink:href="#linearGradient3281"
       id="linearGradient3336"
       gradientUnits="userSpaceOnUse"
       x1="276.5401"
       y1="296.32043"
       x2="279.02029"
       y2="414.95581"
       gradientTransform="translate(0,180)" />
    <linearGradient
       inkscape:collect="always"
       xlink:href="#linearGradient3281"
       id="linearGradient3340"
       gradientUnits="userSpaceOnUse"
       x1="276.5401"
       y1="296.32043"
       x2="279.02029"
       y2="414.95581" />
    <linearGradient
       inkscape:collect="always"
       xlink:href="#linearGradient3281"
       id="linearGradient3345"
       gradientUnits="userSpaceOnUse"
       x1="276.5401"
       y1="296.32043"
       x2="279.02029"
       y2="414.95581" />
    <linearGradient
       inkscape:collect="always"
       xlink:href="#linearGradient3281"
       id="linearGradient2448"
       gradientUnits="userSpaceOnUse"
       x1="276.5401"
       y1="296.32043"
       x2="279.02029"
       y2="414.95581"
       gradientTransform="matrix(1.1145704,0,0,1,-43.69302,358)" />
    <linearGradient
       inkscape:collect="always"
       xlink:href="#linearGradient3281"
       id="linearGradient2456"
       gradientUnits="userSpaceOnUse"
       gradientTransform="translate(0,356)"
       x1="276.5401"
       y1="296.32043"
       x2="279.02029"
       y2="414.95581" />
    <linearGradient
       inkscape:collect="always"
       xlink:href="#linearGradient2465"
       id="linearGradient3273"
       gradientUnits="userSpaceOnUse"
       x1="120.46111"
       y1="861.40613"
       x2="256.07449"
       y2="936.66412" />
    <linearGradient
       inkscape:collect="always"
       xlink:href="#linearGradient3259"
       id="linearGradient3275"
       gradientUnits="userSpaceOnUse"
       x1="175.37669"
       y1="848.98621"
       x2="332.43713"
       y2="848.02069" />
    <radialGradient
       inkscape:collect="always"
       xlink:href="#linearGradient2443"
       id="radialGradient3277"
       gradientUnits="userSpaceOnUse"
       gradientTransform="matrix(1.521831,-7.5432107e-2,1.0288347e-2,0.2075634,-141.60731,690.26771)"
       cx="258.63412"
       cy="898.26996"
       fx="258.63412"
       fy="898.26996"
       r="75.378564" />
    <filter
       inkscape:collect="always"
       id="filter3326">
      <feGaussianBlur
         inkscape:collect="always"
         stdDeviation="1.5584982"
         id="feGaussianBlur3328" />
    </filter>
    <linearGradient
       inkscape:collect="always"
       xlink:href="#linearGradient3346"
       id="linearGradient3352"
       x1="175.52852"
       y1="873.9762"
       x2="155.93465"
       y2="829.89001"
       gradientUnits="userSpaceOnUse"
       gradientTransform="translate(2.4492352,3.2656469)" />
    <linearGradient
       inkscape:collect="always"
       xlink:href="#linearGradient3281"
       id="linearGradient2492"
       gradientUnits="userSpaceOnUse"
       x1="276.5401"
       y1="296.32043"
       x2="279.02029"
       y2="414.95581"
       gradientTransform="translate(600,0)" />
    <linearGradient
       inkscape:collect="always"
       xlink:href="#linearGradient3272"
       id="linearGradient3278"
       x1="-135.57596"
       y1="242.21219"
       x2="-133.9749"
       y2="331.01758"
       gradientUnits="userSpaceOnUse"
       gradientTransform="matrix(0.9147031,0,0,0.9147029,-15.618981,4.627014)" />
    <filter
       inkscape:collect="always"
       id="filter3290">
      <feGaussianBlur
         inkscape:collect="always"
         stdDeviation="1.2910698"
         id="feGaussianBlur3292" />
    </filter>
    <linearGradient
       inkscape:collect="always"
       xlink:href="#linearGradient3272"
       id="linearGradient3298"
       gradientUnits="userSpaceOnUse"
       gradientTransform="translate(320.12079,-32.001252)"
       x1="-135.57596"
       y1="242.21219"
       x2="-133.9749"
       y2="331.01758" />
    <linearGradient
       inkscape:collect="always"
       xlink:href="#linearGradient3272"
       id="linearGradient3308"
       gradientUnits="userSpaceOnUse"
       gradientTransform="matrix(0.9147031,0,0,0.9147029,-15.618981,-647.74169)"
       x1="-135.57596"
       y1="242.21219"
       x2="-133.9749"
       y2="331.01758" />
    <linearGradient
       inkscape:collect="always"
       xlink:href="#linearGradient3272"
       id="linearGradient3316"
       gradientUnits="userSpaceOnUse"
       gradientTransform="matrix(0.9147031,0,0,0.9147029,-15.618981,-647.74169)"
       x1="-135.57596"
       y1="242.21219"
       x2="-133.9749"
       y2="331.01758" />
    <linearGradient
       inkscape:collect="always"
       xlink:href="#linearGradient3320"
       id="linearGradient3361"
       gradientUnits="userSpaceOnUse"
       x1="-423.99911"
       y1="491.18341"
       x2="-427.56482"
       y2="168.45421"
       gradientTransform="matrix(0.4673479,0,0,1,202.15497,4)" />
    <mask
       maskUnits="userSpaceOnUse"
       id="mask3357">
      <rect
         style="fill:url(#linearGradient3361);fill-opacity:1;stroke:#d9d9d9;stroke-width:0.95707983;stroke-linecap:square;stroke-linejoin:miter;stroke-miterlimit:4;stroke-dasharray:none;stroke-dashoffset:0;stroke-opacity:1"
         id="rect3359"
         width="351.60901"
         height="209.67119"
         x="-157.13947"
         y="390.34781" />
    </mask>
    <linearGradient
       inkscape:collect="always"
       xlink:href="#linearGradient3272"
       id="linearGradient3406"
       gradientUnits="userSpaceOnUse"
       gradientTransform="matrix(1.338012,0,0,1.3380117,-392.46873,6.7683165)"
       x1="-135.57596"
       y1="242.21219"
       x2="-133.9749"
       y2="331.01758" />
  </defs>
  <sodipodi:namedview
     id="base"
     pagecolor="#ffffff"
     bordercolor="#666666"
     borderopacity="1.0"
     inkscape:pageopacity="0.0"
     inkscape:pageshadow="2"
     inkscape:zoom="0.51883278"
     inkscape:cx="372.04724"
     inkscape:cy="526.18109"
     inkscape:document-units="px"
     inkscape:current-layer="g3402"
     showgrid="false"
     inkscape:window-width="1183"
     inkscape:window-height="745"
     inkscape:window-x="83"
     inkscape:window-y="25" />
  <metadata
     id="metadata7">
    <rdf:RDF>
      <cc:Work
         rdf:about="">
        <dc:format>image/svg+xml</dc:format>
        <dc:type
           rdf:resource="http://purl.org/dc/dcmitype/StillImage" />
      </cc:Work>
    </rdf:RDF>
  </metadata>
  <g
     inkscape:label="Capa 1"
     inkscape:groupmode="layer"
     id="layer1">
    <rect
       style="opacity:1;fill:#ffffff;fill-opacity:1;fill-rule:nonzero;stroke:none;stroke-width:0.99999994000000003;stroke-linecap:butt;stroke-linejoin:miter;stroke-miterlimit:4;stroke-dasharray:none;stroke-opacity:1"
       id="rect3271"
       width="250.47044"
       height="250.47044"
       x="8.9757967"
       y="12.737489"
       rx="0"
       ry="0"
       inkscape:export-filename="/home/danigmArch/Documentos/Projects/cusl3-geco/src/gecoc/web-geco/static/images/error.png"
       inkscape:export-xdpi="12.31"
       inkscape:export-ydpi="12.31" />
    <g
       id="g3265"
       inkscape:export-filename="/home/danigm/Projects/geco/src/gecoc/web-geco/static/images/error.png"
       inkscape:export-xdpi="12.31"
       inkscape:export-ydpi="12.31">
      <path
         sodipodi:type="arc"
         style="fill:#000000;fill-opacity:0.59401706;fill-rule:nonzero;stroke:#000000;stroke-width:2.3447907;stroke-linecap:butt;stroke-linejoin:miter;stroke-miterlimit:4;stroke-dasharray:none;stroke-opacity:1;filter:url(#filter3175)"
         id="path2391"
         sodipodi:cx="402.85715"
         sodipodi:cy="455.21933"
         sodipodi:rx="271.42856"
         sodipodi:ry="271.42856"
         d="M 674.28571,455.21933 A 271.42856,271.42856 0 1 1 131.42859,455.21933 A 271.42856,271.42856 0 1 1 674.28571,455.21933 z"
         transform="matrix(0.4264774,0,0,0.4264774,-37.306336,-56.503086)" />
      <path
         transform="matrix(0.4264774,0,0,0.4264774,-39.306336,-58.503086)"
         d="M 674.28571,455.21933 A 271.42856,271.42856 0 1 1 131.42859,455.21933 A 271.42856,271.42856 0 1 1 674.28571,455.21933 z"
         sodipodi:ry="271.42856"
         sodipodi:rx="271.42856"
         sodipodi:cy="455.21933"
         sodipodi:cx="402.85715"
         id="path2383"
         style="fill:url(#linearGradient3217);fill-opacity:1;fill-rule:nonzero;stroke:none;stroke-width:2.3447907;stroke-linecap:butt;stroke-linejoin:miter;stroke-miterlimit:4;stroke-dasharray:none;stroke-opacity:1"
         sodipodi:type="arc" />
      <text
         sodipodi:linespacing="125%"
         id="text2387"
         y="249.45706"
         x="148.51007"
         style="font-size:189.49346924000002446px;font-style:italic;font-variant:normal;font-weight:normal;font-stretch:normal;text-align:center;line-height:125%;writing-mode:lr-tb;text-anchor:middle;fill:url(#linearGradient3229);fill-opacity:1;stroke:none;stroke-width:1px;stroke-linecap:butt;stroke-linejoin:miter;stroke-opacity:1;font-family:Kid Kosmic;-inkscape-font-specification:Kid Kosmic Italic"
         xml:space="preserve"><tspan
           style="fill-opacity:1;fill:url(#linearGradient3229)"
           y="249.45706"
           x="148.51007"
           id="tspan2389"
           sodipodi:role="line">x</tspan></text>
    </g>
    <rect
       ry="0"
       rx="0"
       y="12.737489"
       x="268.9758"
       height="250.47044"
       width="250.47044"
       id="rect3273"
       style="opacity:1;fill:#ffffff;fill-opacity:1;fill-rule:nonzero;stroke:none;stroke-width:0.99999994000000003;stroke-linecap:butt;stroke-linejoin:miter;stroke-miterlimit:4;stroke-dasharray:none;stroke-opacity:1"
       inkscape:export-filename="/home/danigmArch/Documentos/Projects/cusl3-geco/src/gecoc/web-geco/static/images/alert.png"
       inkscape:export-xdpi="12.217011"
       inkscape:export-ydpi="12.217011" />
    <g
       id="g3259"
       inkscape:export-filename="/home/danigmArch/Documentos/Projects/cusl3-geco/src/gecoc/web-geco/static/images/alert.png"
       inkscape:export-xdpi="12.31"
       inkscape:export-ydpi="12.31">
      <path
         transform="matrix(0.4264774,0,0,0.4264774,222.69366,-56.503086)"
         d="M 674.28571,455.21933 A 271.42856,271.42856 0 1 1 131.42859,455.21933 A 271.42856,271.42856 0 1 1 674.28571,455.21933 z"
         sodipodi:ry="271.42856"
         sodipodi:rx="271.42856"
         sodipodi:cy="455.21933"
         sodipodi:cx="402.85715"
         id="path3195"
         style="opacity:1;fill:#000000;fill-opacity:0.59401706;fill-rule:nonzero;stroke:#000000;stroke-width:2.3447907;stroke-linecap:butt;stroke-linejoin:miter;stroke-miterlimit:4;stroke-dasharray:none;stroke-opacity:1;filter:url(#filter3175)"
         sodipodi:type="arc" />
      <path
         sodipodi:type="arc"
         style="opacity:1;fill:url(#linearGradient3203);fill-opacity:1;fill-rule:nonzero;stroke:none;stroke-width:2.3447907;stroke-linecap:butt;stroke-linejoin:miter;stroke-miterlimit:4;stroke-dasharray:none;stroke-opacity:1"
         id="path3197"
         sodipodi:cx="402.85715"
         sodipodi:cy="455.21933"
         sodipodi:rx="271.42856"
         sodipodi:ry="271.42856"
         d="M 674.28571,455.21933 A 271.42856,271.42856 0 1 1 131.42859,455.21933 A 271.42856,271.42856 0 1 1 674.28571,455.21933 z"
         transform="matrix(0.4264774,0,0,0.4264774,220.69366,-58.503086)" />
      <text
         transform="matrix(0.9233811,-0.3838846,0.3838846,0.9233811,0,0)"
         xml:space="preserve"
         style="font-size:189.49346924000002446px;font-style:italic;font-variant:normal;font-weight:normal;font-stretch:normal;text-align:center;line-height:125%;writing-mode:lr-tb;text-anchor:middle;fill:url(#linearGradient3237);fill-opacity:1;stroke:none;stroke-width:1px;stroke-linecap:butt;stroke-linejoin:miter;stroke-opacity:1;font-family:Kid Kosmic;-inkscape-font-specification:Kid Kosmic Italic"
         x="327.6069"
         y="391.83456"
         id="text3199"
         sodipodi:linespacing="125%"><tspan
           style="fill-opacity:1;fill:url(#linearGradient3237)"
           sodipodi:role="line"
           id="tspan3201"
           x="327.6069"
           y="391.83456">!</tspan></text>
    </g>
    <rect
       style="fill:#ffffff;fill-opacity:1;fill-rule:nonzero;stroke:none;stroke-width:1.00000036;stroke-linecap:butt;stroke-linejoin:miter;stroke-miterlimit:4;stroke-dasharray:none;stroke-opacity:0.15384617"
       id="rect3310"
       width="557.28308"
       height="156.89272"
       x="50.352974"
       y="281.90924"
       rx="0"
       ry="0"
       inkscape:export-filename="/home/danigmArch/Documentos/Projects/cusl3-geco/src/gecoc/web-geco/static/images/accbutton.png"
       inkscape:export-xdpi="19.379999"
       inkscape:export-ydpi="19.379999" />
    <rect
       rx="23.797922"
       ry="23.797924"
       y="298.32043"
       x="62.41011"
       height="126.31206"
       width="538.19916"
       id="rect3289"
       style="fill:#808080;fill-opacity:1;fill-rule:nonzero;stroke:none;stroke-width:1;stroke-linecap:butt;stroke-linejoin:miter;stroke-miterlimit:4;stroke-dasharray:none;stroke-opacity:1;filter:url(#filter3295)" />
    <rect
       style="fill:url(#linearGradient3345);fill-opacity:1;fill-rule:nonzero;stroke:none;stroke-width:1;stroke-linecap:butt;stroke-linejoin:miter;stroke-miterlimit:4;stroke-dasharray:none;stroke-opacity:1"
       id="rect3275"
       width="538.19916"
       height="126.31206"
       x="60.41011"
       y="296.32043"
       ry="23.797924"
       rx="23.797922" />
    <text
       xml:space="preserve"
       style="font-size:77.04286956999999347px;font-style:normal;font-variant:normal;font-weight:normal;font-stretch:normal;text-align:center;line-height:100%;writing-mode:lr-tb;text-anchor:middle;fill:#ffffff;fill-opacity:1;stroke:none;stroke-width:1px;stroke-linecap:butt;stroke-linejoin:miter;stroke-opacity:0.15384617000000000;font-family:Orange;-inkscape-font-specification:Orange"
       x="328.36511"
       y="382.57376"
       id="text3277"
       sodipodi:linespacing="100%"><tspan
         sodipodi:role="line"
         x="328.36511"
         y="382.57376"
         id="tspan3299">Acceder</tspan></text>
    <rect
       inkscape:export-ydpi="19.379999"
       inkscape:export-xdpi="19.379999"
       inkscape:export-filename="/home/danigmArch/Documentos/Projects/cusl3-geco/src/gecoc/web-geco/static/images/recbutton.png"
       style="fill:#ffffff;fill-opacity:1;fill-rule:nonzero;stroke:none;stroke-width:1.00000036;stroke-linecap:butt;stroke-linejoin:miter;stroke-miterlimit:4;stroke-dasharray:none;stroke-opacity:0.15384617"
       id="rect2450"
       width="557.28308"
       height="156.89272"
       x="50.352974"
       y="637.90924"
       rx="0"
       ry="0" />
    <rect
       rx="23.797922"
       ry="23.797924"
       y="654.32043"
       x="62.41011"
       height="126.31206"
       width="538.19916"
       id="rect2452"
       style="fill:#808080;fill-opacity:1;fill-rule:nonzero;stroke:none;stroke-width:1;stroke-linecap:butt;stroke-linejoin:miter;stroke-miterlimit:4;stroke-dasharray:none;stroke-opacity:1;filter:url(#filter3295)" />
    <rect
       style="fill:url(#linearGradient2456);fill-opacity:1;fill-rule:nonzero;stroke:none;stroke-width:1;stroke-linecap:butt;stroke-linejoin:miter;stroke-miterlimit:4;stroke-dasharray:none;stroke-opacity:1"
       id="rect2454"
       width="538.19916"
       height="126.31206"
       x="60.41011"
       y="652.32043"
       ry="23.797924"
       rx="23.797922" />
    <rect
       ry="0"
       rx="0"
       y="461.90924"
       x="50.352974"
       height="156.89272"
       width="557.28308"
       id="rect3321"
       style="fill:#ffffff;fill-opacity:1;fill-rule:nonzero;stroke:none;stroke-width:1.00000036;stroke-linecap:butt;stroke-linejoin:miter;stroke-miterlimit:4;stroke-dasharray:none;stroke-opacity:0.15384617"
       inkscape:export-filename="/home/danigmArch/Documentos/Projects/cusl3-geco/src/gecoc/web-geco/static/images/regbutton.png"
       inkscape:export-xdpi="19.379999"
       inkscape:export-ydpi="19.379999" />
    <rect
       style="fill:#808080;fill-opacity:1;fill-rule:nonzero;stroke:none;stroke-width:1;stroke-linecap:butt;stroke-linejoin:miter;stroke-miterlimit:4;stroke-dasharray:none;stroke-opacity:1;filter:url(#filter3295)"
       id="rect3323"
       width="538.19916"
       height="126.31206"
       x="62.41011"
       y="478.32043"
       ry="23.797924"
       rx="23.797922" />
    <rect
       rx="23.797922"
       ry="23.797924"
       y="476.32043"
       x="60.41011"
       height="126.31206"
       width="538.19916"
       id="rect3325"
       style="fill:url(#linearGradient3336);fill-opacity:1;fill-rule:nonzero;stroke:none;stroke-width:1;stroke-linecap:butt;stroke-linejoin:miter;stroke-miterlimit:4;stroke-dasharray:none;stroke-opacity:1" />
    <path
       style="font-size:66.24617004px;font-style:normal;font-variant:normal;font-weight:normal;font-stretch:normal;text-align:center;line-height:100%;writing-mode:lr-tb;text-anchor:middle;fill:#ffffff;fill-opacity:1;stroke:none;stroke-width:1.00000036px;stroke-linecap:butt;stroke-linejoin:miter;stroke-opacity:0.15384617;font-family:Orange;-inkscape-font-specification:Orange"
       d="M 143.3125 510.5625 C 141.64462 510.56801 139.89531 510.66345 138.0625 510.8125 L 138.0625 510.9375 L 131.8125 511.0625 L 134.75 573.875 L 147.78125 573.09375 L 147.25 548.1875 C 147.38248 548.18751 149.80568 551.45079 154.53125 558.03125 C 162.48076 569.11644 166.50539 574.6379 166.59375 574.59375 C 168.05113 574.28459 171.95283 572.18059 178.3125 568.25 C 178.44494 568.20583 175.96673 565.62301 170.84375 560.5 C 160.86263 550.65141 155.92998 545.70044 156.0625 545.65625 C 157.16658 545.17046 158.19753 544.65496 159.125 544.125 C 165.57293 540.50356 168.60327 535.47927 168.25 529.03125 C 168.07331 526.02813 167.41114 523.34073 166.21875 521 C 162.62487 514.00555 154.98768 510.5239 143.3125 510.5625 z M 295.0625 511.34375 C 291.75018 511.3438 288.95278 512.32515 286.65625 514.3125 C 284.71302 515.99078 283.59038 518.0031 283.28125 520.34375 C 282.83961 523.56777 283.96224 526.34681 286.65625 528.6875 C 288.51113 530.23328 290.71974 531.17796 293.28125 531.53125 C 297.256 532.01709 300.64222 531.05407 303.46875 528.625 L 303.75 528.375 C 305.51654 526.74096 306.53458 524.80199 306.84375 522.59375 C 307.2412 519.36981 306.10023 516.60906 303.40625 514.3125 C 301.10969 512.32517 298.33062 511.34379 295.0625 511.34375 z M 356.59375 511.40625 C 356.06378 518.91419 355.83082 522.12249 355.875 521.0625 C 354.85922 535.23921 354.66294 545.22745 355.28125 550.96875 C 356.0762 558.69747 358.49939 564.70319 362.5625 569.03125 C 366.53726 573.27099 371.18737 575.32001 376.53125 575.1875 C 381.69842 575.09916 386.23851 573.1181 390.125 569.1875 C 394.58553 564.59443 396.79412 558.80875 396.75 551.875 L 386.71875 550.6875 C 386.49789 552.36575 385.99534 553.86255 385.15625 555.1875 C 383.47798 557.79319 381.14646 559.23502 378.1875 559.5 C 374.78684 559.76499 371.98944 558.34148 369.78125 555.25 C 366.02729 550.03865 365.37055 541.70146 367.84375 530.21875 L 384.75 532 L 385.34375 521.75 L 367.84375 521.15625 L 368.4375 512 L 356.59375 511.40625 z M 296.125 517.5625 C 297.62656 517.56254 298.90878 517.93673 299.96875 518.6875 C 300.54286 519.08502 300.95374 519.5638 301.21875 520.09375 C 301.92535 521.50704 301.55115 522.72133 300.09375 523.78125 L 299.96875 523.9375 C 299.43876 524.24669 298.86828 524.49797 298.25 524.71875 C 295.99761 525.33708 294.02197 525.08583 292.34375 523.9375 C 291.68128 523.4959 291.23373 522.96211 290.96875 522.34375 C 290.35044 520.93054 290.77966 519.7033 292.28125 518.6875 C 293.34117 517.93675 294.6234 517.56256 296.125 517.5625 z M 146.59375 520.9375 C 150.5685 521.68833 152.88168 524.16113 153.5 528.3125 C 154.2066 532.9056 152.03469 535.97263 147 537.5625 L 146.59375 520.9375 z M 233.5 526.71875 L 230.5 534.84375 L 240.25 543.59375 C 239.05756 544.34456 237.95326 545.19756 236.9375 546.125 C 236.76084 546.25751 236.58289 546.39878 236.40625 546.53125 C 232.25482 550.59436 230.22417 555.4224 230.3125 561.03125 C 230.40083 566.64009 232.60941 571.41315 236.9375 575.34375 L 237.1875 575.59375 C 233.69853 576.60951 230.6315 577.91007 227.9375 579.5 C 226.39176 580.42743 225.00493 581.44004 223.8125 582.5 C 219.17528 586.56307 217.23088 591.03523 217.9375 595.9375 C 218.29512 598.33558 219.24131 600.56757 220.78125 602.625 L 239.90625 602.625 C 238.03934 601.44626 236.66999 599.98814 235.8125 598.25 C 234.88505 596.39507 234.52917 594.66528 234.75 593.03125 C 235.01498 590.82302 236.65308 588.22191 239.65625 585.21875 C 242.0411 582.83387 245.26773 581.68 249.375 581.8125 L 254.625 582.21875 C 255.77324 582.21873 257.07382 582.35998 258.53125 582.625 C 263.9634 583.77325 268.27599 585.9635 271.5 589.1875 C 273.39901 591.13069 274.55288 592.64587 274.90625 593.75 C 275.39201 595.47237 274.37939 597.44799 271.90625 599.65625 C 270.65563 600.80874 269.25124 601.78563 267.6875 602.625 L 284.125 602.625 C 286.64121 599.37601 287.57703 595.89268 286.9375 592.15625 C 286.14249 587.20984 282.81128 582.98894 276.9375 579.5 C 274.4201 577.9984 271.58602 576.78409 268.40625 575.8125 L 268.9375 575.34375 L 269.53125 574.8125 C 273.63847 570.74939 275.65079 565.93967 275.5625 560.375 C 275.47412 554.81033 273.26553 550.03731 268.9375 546.0625 C 264.52105 542.04359 259.17753 540.03128 252.90625 540.03125 C 251.97878 540.03127 250.94783 540.08629 249.84375 540.21875 L 233.5 526.71875 z M 199.8125 536.59375 C 195.88533 536.82082 192.28469 538.62324 189 542.0625 C 182.64036 550.10037 180.57304 557.36454 182.78125 563.8125 C 184.23866 568.18471 187.41028 571.46095 192.3125 573.625 C 197.61218 575.92154 203.23824 576.24614 209.15625 574.65625 C 215.91333 572.80137 221.06058 568.80797 224.59375 562.625 C 225.03534 561.8742 225.42789 561.12579 225.78125 560.375 C 224.36796 561.03746 221.52096 561.23374 217.28125 560.96875 C 215.11717 560.83628 213.56533 560.76834 212.59375 560.8125 C 210.34135 564.65475 207.42102 566.43414 203.84375 566.125 C 201.23804 565.90416 199.18906 564.76321 197.6875 562.6875 C 196.09758 560.52347 195.99298 558.45614 197.40625 556.46875 C 197.58289 556.24792 197.81041 556.00208 198.03125 555.78125 L 219.625 552.40625 C 219.22748 547.63652 216.68136 543.6615 212 540.4375 C 208.55517 538.05269 205.06435 536.77043 201.53125 536.59375 C 200.95711 536.56063 200.37352 536.56131 199.8125 536.59375 z M 325.125 536.84375 C 323.98778 536.90171 322.87244 537.0696 321.8125 537.3125 C 316.5128 538.50496 314.10794 541.95913 314.59375 547.65625 C 314.63791 548.05374 314.72418 548.4463 314.8125 548.84375 C 315.34246 551.53777 317.17684 553.85639 320.3125 555.84375 L 326.9375 559.5625 C 330.42644 561.54989 332.19289 563.15129 332.28125 564.34375 C 332.36956 565.40369 331.2286 565.91918 328.84375 565.875 C 324.64814 565.7425 319.69717 564.21439 314 561.34375 L 312.875 572.34375 C 317.99803 574.33112 323.34156 575.39876 328.90625 575.53125 C 335.92832 575.66373 341.16184 574.41818 344.5625 571.8125 C 345.09243 571.41501 345.55832 570.96748 346 570.4375 C 348.38482 567.74348 349.20116 564.7498 348.40625 561.4375 C 347.25795 556.93277 343.28832 553.33735 336.53125 550.6875 C 329.59746 547.90518 326.14332 545.92955 326.1875 544.78125 C 326.23165 543.98631 327.71014 543.85794 330.625 544.34375 C 334.86473 545.09456 338.55181 546.52345 341.6875 548.6875 L 341.09375 541.03125 C 339.7688 540.23632 338.21696 539.50625 336.40625 538.84375 C 332.29897 537.35323 328.53667 536.66986 325.125 536.84375 z M 426.75 537.1875 C 423.29692 537.19216 419.04939 539.0357 414.03125 542.6875 L 413.375 537.96875 L 401.3125 538.78125 L 400.71875 575.40625 C 401.55786 575.4504 402.64384 575.46873 403.96875 575.46875 C 408.91512 575.38041 411.63919 575.36205 412.125 575.40625 C 412.16915 573.90466 412.20581 572.46283 412.25 571.09375 C 412.82412 559.47859 414.64015 552.26399 417.6875 549.4375 C 419.23322 548.02426 420.6934 548.07926 422.0625 549.625 C 423.47573 551.30325 423.97827 553.67145 423.625 556.71875 L 436.96875 556.71875 C 437.27786 549.25503 436.06899 543.85648 433.375 540.5 C 431.63602 538.29733 429.43573 537.18388 426.75 537.1875 z M 512.90625 537.1875 C 509.45317 537.19216 505.23689 539.0357 500.21875 542.6875 L 499.53125 537.96875 L 487.5 538.78125 L 486.90625 575.40625 C 487.74536 575.4504 488.80009 575.46873 490.125 575.46875 C 495.07137 575.38041 497.79544 575.36205 498.28125 575.40625 C 498.3254 573.90466 498.36206 572.46283 498.40625 571.09375 C 498.98037 559.47859 500.7964 552.26399 503.84375 549.4375 C 505.38947 548.02426 506.84965 548.07926 508.21875 549.625 C 509.63198 551.30325 510.16577 553.67145 509.8125 556.71875 L 523.125 556.71875 C 523.43411 549.25503 522.25649 543.85648 519.5625 540.5 C 517.82352 538.29733 515.59198 537.18388 512.90625 537.1875 z M 469.34375 537.25 L 469.09375 539.21875 C 467.37132 538.64464 465.57363 538.28874 463.71875 538.15625 C 457.80074 537.62631 452.63514 539.1727 448.21875 542.75 L 447.6875 543.21875 C 443.80105 546.57524 441.69707 550.69153 441.34375 555.59375 C 440.94627 560.89345 442.67606 565.54358 446.5625 569.5625 C 450.3606 573.4931 455.13365 575.64667 460.875 576 C 463.87814 576.22081 466.7618 575.84657 469.5 574.875 L 469.03125 575.59375 L 482.15625 575.59375 L 482.21875 556.96875 C 482.3512 555.90882 482.36953 554.87242 482.28125 553.8125 L 482.46875 538.84375 L 469.34375 537.25 z M 287.90625 538.375 L 286.4375 574.46875 L 300.96875 576 L 300.96875 538.375 L 287.90625 538.375 z M 200.03125 543.125 C 200.31901 543.09809 200.62835 543.08636 200.9375 543.125 C 203.14569 543.38999 205.12132 544.54388 206.84375 546.53125 C 199.37999 547.85619 195.60665 548.50001 195.5625 548.5 C 196.52858 545.0994 198.01694 543.3134 200.03125 543.125 z M 459.1875 550.5 C 459.50217 550.48413 459.82502 550.5 460.15625 550.5 C 463.86601 550.54418 466.78635 551.45221 468.90625 553.21875 C 469.92199 554.05788 470.60251 555.02089 471 556.125 L 471.09375 559.5625 C 470.65208 560.93159 469.69446 562.0542 468.28125 562.9375 C 466.38217 564.0416 463.54809 564.48372 459.75 564.21875 C 457.1443 564.08626 454.95406 563.26993 453.1875 561.8125 C 451.86256 560.7084 451.07748 559.44449 450.8125 558.03125 C 450.37085 555.69056 451.27888 553.74618 453.53125 552.15625 L 453.78125 552 C 455.17241 551.11121 456.9848 550.6111 459.1875 550.5 z M 254.96875 552.75 C 257.83939 552.75001 260.26257 553.48009 262.25 554.9375 C 263.79571 556.08577 264.7404 557.42301 265.09375 558.96875 C 265.71201 561.44194 264.84065 563.61385 262.5 565.46875 L 262.25 565.65625 C 260.83672 566.67202 259.16195 567.36542 257.21875 567.71875 C 253.5531 568.29288 250.36857 567.59947 247.71875 565.65625 C 246.08466 564.46382 245.12164 563.02196 244.8125 561.34375 C 244.32668 558.87056 245.2897 556.76659 247.71875 555 C 249.70611 553.49843 252.14223 552.74998 254.96875 552.75 z "
       id="text3349" />
    <text
       sodipodi:linespacing="100%"
       id="text2444"
       y="739.81567"
       x="332.31155"
       style="font-size:74.46025848px;font-style:normal;font-variant:normal;font-weight:normal;font-stretch:normal;text-align:center;line-height:100%;writing-mode:lr-tb;text-anchor:middle;fill:#ffffff;fill-opacity:1;stroke:none;stroke-width:1px;stroke-linecap:butt;stroke-linejoin:miter;stroke-opacity:0.15384617;font-family:Orange;-inkscape-font-specification:Orange"
       xml:space="preserve"><tspan
         id="tspan2446"
         y="739.81567"
         x="332.31155"
         sodipodi:role="line"
         dx="0 0 0 0 0 0 0 0 0 -53.658947">Recordar 10'</tspan></text>
    <g
       id="g3362"
       inkscape:export-filename="/home/danigm/Documentos/Projects/cusl3-geco/src/gecoc/web-geco/static/images/trash.png"
       inkscape:export-xdpi="8.5799999"
       inkscape:export-ydpi="8.5799999">
      <path
         id="path3295"
         d="M 197.1875,865.25 C 151.70045,865.25 114.78125,872.54616 114.78125,881.53125 C 114.78125,882.722 115.45674,883.88175 116.6875,885 C 121.02054,897.64201 154.26046,993.66284 168.6875,1004.8438 C 184.12266,1016.806 244.72665,1005.6116 255.53125,999.4375 C 266.33586,993.26344 269.42939,982.06943 267.5,976.28125 C 264.41296,973.96597 260.53936,936.91318 262.46875,931.125 C 264.24439,925.79803 275.75939,890.99266 277.75,884.96875 C 278.95782,883.86044 279.59375,882.71054 279.59375,881.53125 C 279.59375,872.54615 242.67455,865.25 197.1875,865.25 z"
         style="fill:#000000;fill-opacity:1;fill-rule:nonzero;stroke:#000000;stroke-width:1;stroke-miterlimit:4;stroke-dasharray:none;stroke-opacity:1;filter:url(#filter3326)" />
      <g
         transform="translate(0,40)"
         id="g3267">
        <path
           style="opacity:1;fill:url(#linearGradient3273);fill-opacity:1;fill-rule:nonzero;stroke:#000000;stroke-width:1;stroke-miterlimit:4;stroke-dasharray:none;stroke-opacity:1"
           d="M 113.83419,840.51482 C 113.83419,840.51482 151.26442,950.87611 166.69956,962.83834 C 182.13471,974.80058 242.71765,963.6101 253.52225,957.43604 C 264.32686,951.26198 267.41388,940.0715 265.48449,934.28332 C 262.39746,931.96805 258.53868,894.92371 260.46807,889.13553 C 262.39746,883.34735 277.06085,838.9713 277.06085,838.9713 L 113.83419,840.51482 z"
           id="path2437"
           sodipodi:nodetypes="csscscc" />
        <path
           sodipodi:type="arc"
           style="opacity:1;fill:url(#linearGradient3275);fill-opacity:1;fill-rule:nonzero;stroke:#000000;stroke-width:0.97587842;stroke-miterlimit:4;stroke-dasharray:none;stroke-opacity:1"
           id="path2435"
           sodipodi:cx="255.14819"
           sodipodi:cy="849.83209"
           sodipodi:rx="80.416359"
           sodipodi:ry="15.884712"
           d="M 335.56455,849.83209 A 80.416359,15.884712 0 1 1 174.73183,849.83209 A 80.416359,15.884712 0 1 1 335.56455,849.83209 z"
           transform="matrix(1.0247178,0,0,1.0247178,-66.260256,-31.319815)" />
        <path
           sodipodi:type="inkscape:offset"
           inkscape:radius="-4.8799696"
           inkscape:original="M 255.15625 833.9375 C 210.76642 833.9375 174.71874 841.07539 174.71875 849.84375 C 174.71875 858.61211 210.76642 865.71876 255.15625 865.71875 C 299.54608 865.71875 335.56251 858.61211 335.5625 849.84375 C 335.5625 841.07539 299.54608 833.93749 255.15625 833.9375 z "
           style="opacity:1;fill:url(#radialGradient3277);fill-opacity:1;fill-rule:nonzero;stroke:#000000;stroke-width:0.97587842;stroke-miterlimit:4;stroke-dasharray:none;stroke-opacity:1"
           id="path2441"
           d="M 255.15625,838.8125 C 233.2229,838.8125 213.34792,840.58602 199.25,843.375 C 192.20104,844.76949 186.58137,846.47953 183.125,848.09375 C 181.65442,848.78055 180.82707,849.37118 180.25,849.84375 C 180.82705,850.3154 181.62506,850.90889 183.09375,851.59375 C 186.54981,853.20534 192.2008,854.89049 199.25,856.28125 C 213.34841,859.06276 233.22176,860.84375 255.15625,860.84375 C 277.09074,860.84375 296.97225,859.06264 311.0625,856.28125 C 318.10763,854.89055 323.73467,853.20499 327.1875,851.59375 C 328.65482,850.90904 329.45496,850.31514 330.03125,849.84375 C 329.45447,849.37148 328.65495,848.77958 327.1875,848.09375 C 323.73435,846.47988 318.10738,844.76943 311.0625,843.375 C 296.97274,840.58614 277.0896,838.8125 255.15625,838.8125 z"
           transform="matrix(1.0247178,0,0,1.0247178,-66.260256,-31.319815)" />
        <path
           style="font-size:88.75435638px;font-style:italic;font-variant:normal;font-weight:normal;font-stretch:normal;text-align:center;line-height:125%;writing-mode:lr-tb;text-anchor:middle;fill:#ffffff;fill-opacity:1;stroke:none;stroke-width:1px;stroke-linecap:butt;stroke-linejoin:miter;stroke-opacity:1;font-family:Kid Kosmic;-inkscape-font-specification:Kid Kosmic Italic"
           d="M 168.0842,885.29177 C 165.56756,880.72008 171.07842,876.82253 174.85536,875.48146 C 178.74951,873.43684 182.76785,875.72844 184.0524,879.61947 C 188.52165,886.92411 193.32238,894.04237 198.72162,900.69597 C 205.15784,890.55107 210.96526,880.02039 216.45826,869.33953 C 219.63955,865.28195 227.27315,864.34878 230.41612,868.91792 C 231.99587,873.29057 227.23292,877.0002 225.83509,880.90065 C 220.08,891.03529 214.05729,901.04059 207.25565,910.51368 C 213.31061,917.07068 220.4694,922.59628 228.24243,926.91236 C 232.02365,930.4677 228.45387,936.00701 224.58498,937.6922 C 220.14515,940.21968 216.85305,934.97163 213.01794,933.46152 C 207.83355,930.11305 202.92188,926.34551 198.32258,922.23094 C 191.67091,930.64293 184.1758,938.37349 176.60768,945.91669 C 173.76579,950.0992 165.63516,947.88184 166.26835,942.49498 C 167.56213,937.02644 173.35829,934.50538 176.50869,930.20727 C 181.27078,925.08097 185.64279,919.60195 189.72983,913.92578 C 181.48196,905.22169 174.27922,895.5517 168.0842,885.29179"
           id="text2451" />
      </g>
      <g
         id="g3354">
        <g
           id="g3287"
           transform="matrix(1.4053938,0,0,1.4053938,-54.040883,-356.17598)">
          <path
             style="opacity:1;fill:#ffffff;fill-opacity:1;fill-rule:nonzero;stroke:#000000;stroke-width:0.71154422;stroke-miterlimit:4;stroke-dasharray:none;stroke-opacity:1"
             d="M 147.5744,842.51958 L 147.80017,852.26144 L 135.11884,858.61796 L 142.15378,867.33114 L 138.04758,879.48456 L 155.74894,872.94471 L 173.99066,875.26855 L 167.60133,864.06176 L 178.64119,851.91514 L 163.34855,849.65692 L 164.53848,835.96333 L 154.44242,845.47546 L 147.5744,842.51958 z"
             id="path3281" />
          <path
             id="path3279"
             d="M 156.32543,840.63028 L 152.36782,849.5349 L 138.1864,849.8647 L 140.8248,860.74811 L 131.92019,869.98253 L 150.71882,871.63153 L 166.21944,881.52554 L 165.23004,868.66332 L 180.40086,862.39712 L 167.53864,853.8223 L 174.46445,841.94949 L 161.27243,846.23689 L 156.32543,840.63028 z"
             style="opacity:1;fill:#ffffff;fill-opacity:1;fill-rule:nonzero;stroke:#000000;stroke-width:0.71154422;stroke-miterlimit:4;stroke-dasharray:none;stroke-opacity:1" />
          <path
             id="path3283"
             d="M 142.48953,845.28251 L 142.64458,851.97256 L 133.93591,856.33777 L 138.76704,862.32138 L 135.94719,870.66751 L 148.10325,866.17639 L 160.6304,867.77225 L 156.24265,860.0762 L 163.82405,851.73474 L 153.32213,850.18396 L 154.1393,840.78014 L 147.20603,847.31241 L 142.48953,845.28251 z"
             style="opacity:1;fill:#ffffff;fill-opacity:1;fill-rule:nonzero;stroke:#000000;stroke-width:0.71154416;stroke-miterlimit:4;stroke-dasharray:none;stroke-opacity:1" />
          <path
             inkscape:transform-center-y="3.2980047"
             style="opacity:1;fill:#ffffff;fill-opacity:1;fill-rule:nonzero;stroke:#000000;stroke-width:0.71154416;stroke-miterlimit:4;stroke-dasharray:none;stroke-opacity:1"
             d="M 153.70275,856.16593 L 153.8578,862.85598 L 145.14913,867.22119 L 149.98026,873.2048 L 147.16041,881.55093 L 159.31647,877.05981 L 171.84362,878.65567 L 167.45587,870.95962 L 175.03727,862.61816 L 164.53535,861.06738 L 165.35252,851.66356 L 158.41925,858.19583 L 153.70275,856.16593 z"
             id="path3285" />
        </g>
        <path
           style="fill:url(#linearGradient3352);fill-opacity:1;fill-rule:nonzero;stroke:none;stroke-width:0.99999982;stroke-miterlimit:4;stroke-dasharray:none;stroke-opacity:1"
           d="M 177.63674,819.95315 L 168.19924,828.8594 L 166.10549,826.51565 L 163.13674,833.20315 L 162.51174,832.9219 L 163.04299,826.70315 L 158.35549,831.14065 L 153.79299,829.1719 L 153.94924,835.26565 L 153.29299,835.89065 L 146.66799,833.0469 L 146.82424,839.32815 L 140.60549,839.4844 L 141.91799,844.9219 L 134.63674,848.57815 L 136.94924,851.45315 L 136.29299,851.7969 L 141.13674,857.7969 L 141.01174,858.20315 L 131.79299,867.76565 L 137.63674,868.26565 L 137.48049,868.7344 L 138.51174,868.3594 L 144.57424,868.89065 L 140.41799,881.1094 L 156.19924,875.2969 L 153.23049,884.01565 L 170.23049,877.7344 L 180.01174,883.9844 L 179.63674,878.89065 L 187.91799,879.95315 L 184.76174,874.39065 L 190.94924,875.1719 L 185.29299,865.26565 L 188.35549,861.89065 L 199.94924,857.1094 L 190.04299,850.51565 L 197.48049,842.3594 L 184.54299,840.45315 L 191.60549,828.3594 L 176.48049,833.26565 L 177.63674,819.95315 z"
           id="path3332" />
      </g>
    </g>
    <g
       inkscape:export-ydpi="6.0934081"
       inkscape:export-xdpi="6.0934081"
       inkscape:export-filename="/home/danigm/Documentos/Projects/cusl3-geco/src/gecoc/web-geco/static/images/edit.png"
       id="g3522"
       transform="matrix(2.1397335,0,0,1,-432.55776,0)">
      <path
         style="fill:#000000;fill-opacity:1;fill-rule:nonzero;stroke:#000000;stroke-width:0.6836285;stroke-miterlimit:4;stroke-dasharray:none;stroke-opacity:1"
         d="M 378.18448,793.25 C 371.95735,793.62349 361.40576,804.82404 356.1315,811.09375 C 350.12117,818.23847 348.42359,819.95437 357.97169,842.96875 C 357.53638,844.22088 357.29987,845.03125 357.29987,845.03125 C 357.29987,845.03125 354.92141,851.04427 358.70192,851.96875 C 358.70192,851.96875 357.93819,858.22004 360.74656,860.53125 C 360.74656,860.53125 359.88942,864.91342 362.80581,866.53125 L 363.33158,865.96875 L 391.1826,980.875 L 398.67477,1012.9375 L 416.65306,1025 L 421.63323,1028.3438 L 422.10058,1017.2188 C 422.0622,1017.2659 422.02228,1017.3274 421.98374,1017.375 L 422.94765,986.59375 C 422.67605,985.4476 422.39251,984.40895 422.08598,983.46875 L 388.29088,836.4375 C 388.54114,835.10097 388.78186,833.57262 388.72902,832.78125 C 388.62101,831.1634 387.64828,831.65625 387.64828,831.65625 C 387.64828,831.65625 388.40772,829.31769 388.40772,827.46875 C 388.40772,825.61977 386.66976,826.56248 386.66977,826.5625 C 386.66977,826.5625 386.7869,826.09835 387.32697,823.09375 C 387.73975,820.79738 385.90399,820.37644 385.00484,820.3125 C 385.08738,811.9726 384.68309,797.73254 381.13462,794.28125 C 380.33877,793.50721 379.33765,793.18083 378.18448,793.25 z"
         id="path3469" />
      <path
         style="fill:#ff7fff;fill-opacity:1;fill-rule:nonzero;stroke:#000000;stroke-width:0.6836285;stroke-miterlimit:4;stroke-dasharray:none;stroke-opacity:1"
         d="M 357.2718,845.78618 C 346.39047,820.0261 348.01109,818.53994 354.26207,811.10915 C 360.51304,803.67836 374.17259,789.31216 379.26598,794.26602 C 384.35936,799.21988 382.97026,826.46612 382.97026,826.46612 L 357.2718,845.78618 z"
         id="path3453" />
      <g
         id="g3443">
        <path
           id="path3437"
           d="M 360.93614,866.54006 C 358.01975,864.92221 358.88386,860.53089 358.88386,860.53089 C 356.07549,858.21967 356.83159,851.97937 356.83159,851.97937 C 353.05108,851.05489 355.4274,845.04571 355.4274,845.04571 C 355.4274,845.04571 359.42393,831.40951 365.58076,827.24932 C 371.73757,823.08912 382.64703,820.31565 382.64703,820.31565 C 382.64703,820.31565 385.99548,820.08453 385.4554,823.08912 C 384.91533,826.09371 384.80732,826.55595 384.80732,826.55595 C 384.80732,826.55595 386.53555,825.63146 386.53555,827.48044 C 386.53555,829.32941 385.77945,831.64063 385.77945,831.64063 C 385.77945,831.64063 386.75158,831.17839 386.85959,832.79624 C 386.96761,834.4141 385.88746,839.03654 385.88746,839.03654 L 360.93614,866.54006 z"
           style="opacity:1;fill:#ffff00;fill-opacity:1;fill-rule:nonzero;stroke:#000000;stroke-width:0.6836285;stroke-miterlimit:4;stroke-dasharray:none;stroke-opacity:1" />
        <g
           transform="matrix(0.8921222,-0.966719,0.211145,0.8921222,-155.34033,482.2572)"
           id="g3408">
          <path
             id="path3385"
             d="M 398.80174,832.17785 L 388.32732,831.18298 L 399.26636,832.49646 L 398.80174,832.17785 z M 404.46181,835.92678 L 407.93887,838.76724 L 407.92544,838.21366 L 404.46181,835.92678 z M 398.57607,912.14499 L 407.60536,1006.3926 L 405.0089,999.42054 L 401.37928,1002.945 C 401.37928,1002.945 400.38284,999.98204 396.59501,1000.7572 C 392.80717,1001.5323 391.08683,1004.6518 391.08682,1004.6518 C 391.08682,1004.6518 387.6247,997.44825 380.76421,1006.3504 L 380.62114,971.14506 L 380.53774,1007.1956 L 397.76216,1043.1279 L 407.75583,1007.1597 C 407.74847,975.12773 383.25896,992.64246 398.57607,912.14499 z"
             style="opacity:1;fill:#ffffff;fill-opacity:1;fill-rule:nonzero;stroke:#000000;stroke-width:1;stroke-miterlimit:4;stroke-dasharray:none;stroke-opacity:1"
             sodipodi:nodetypes="ccccccccccccsccccccc" />
          <path
             id="path3387"
             d="M 380.77149,1006.3632 C 387.632,997.46101 391.07616,1004.6491 391.07616,1004.6491 C 391.07616,1004.6491 392.80628,1001.5326 396.59412,1000.7574 C 400.38195,999.98231 401.38084,1002.9351 401.38084,1002.9351 L 405.00488,999.43095 L 407.61396,1006.3953 L 408.53798,839.27121 L 400.47089,832.63446 L 388.33226,831.172 L 380.02535,838.79156 L 380.77149,1006.3632 z"
             style="opacity:1;fill:#800000;fill-opacity:1;fill-rule:nonzero;stroke:#000000;stroke-width:1;stroke-miterlimit:4;stroke-dasharray:none;stroke-opacity:1" />
          <path
             id="path3389"
             d="M 399.39519,832.49863 L 388.32732,831.18298 L 387.90415,831.55487 L 390.81358,1004.2226 C 390.96593,1004.4642 391.08682,1004.6518 391.08682,1004.6518 C 391.08683,1004.6518 392.80717,1001.5323 396.59501,1000.7572 C 400.38284,999.98204 401.37928,1002.945 401.37928,1002.945 L 402.38089,1001.984 L 399.39519,832.49863 z"
             style="opacity:1;fill:#ffffff;fill-opacity:1;fill-rule:nonzero;stroke:#000000;stroke-width:1;stroke-miterlimit:4;stroke-dasharray:none;stroke-opacity:1" />
          <path
             id="path3394"
             d="M 400.5212,1033.6763 C 398.57979,1033.8933 396.40845,1034.3965 394.02731,1035.3333 L 397.76216,1043.1279 L 400.5212,1033.6763 z"
             style="opacity:1;fill:#000000;fill-opacity:1;fill-rule:nonzero;stroke:#000000;stroke-width:1;stroke-miterlimit:4;stroke-dasharray:none;stroke-opacity:1" />
        </g>
        <path
           transform="matrix(0.4673479,0,0,1,202.15497,0)"
           id="path3439"
           d="M 332.81573,848.51255 C 342.52286,833.48961 378.80902,825.86259 378.80902,825.86259"
           style="opacity:1;fill:#ffff00;fill-opacity:1;fill-rule:nonzero;stroke:#000000;stroke-width:1;stroke-miterlimit:4;stroke-dasharray:none;stroke-opacity:1" />
        <path
           style="opacity:1;fill:#ffff00;fill-opacity:1;fill-rule:nonzero;stroke:#000000;stroke-width:0.6836285;stroke-miterlimit:4;stroke-dasharray:none;stroke-opacity:1"
           d="M 359.5651,852.51255 C 364.10171,837.48961 381.05997,829.86259 381.05997,829.86259"
           id="path3441" />
      </g>
    </g>
    <rect
       inkscape:export-ydpi="66.169998"
       inkscape:export-xdpi="66.169998"
       inkscape:export-filename="/home/danigm/Projects/geco/src/gecoc/web-geco/static/images/errorimg.png"
       inkscape:label="error"
       y="180.11903"
       x="-744.13245"
       height="370.70334"
       width="678.71417"
       id="rect2496"
       style="fill:#eeeeec;fill-opacity:1;stroke:#d9d9d9;stroke-width:1.39999998;stroke-linecap:square;stroke-linejoin:miter;stroke-miterlimit:4;stroke-dasharray:none;stroke-dashoffset:0;stroke-opacity:1" />
    <text
       xml:space="preserve"
       style="font-size:161.52804565px;font-style:normal;font-variant:normal;font-weight:normal;font-stretch:normal;text-align:start;line-height:125%;writing-mode:lr-tb;text-anchor:start;fill:#000000;fill-opacity:1;stroke:none;stroke-width:1px;stroke-linecap:butt;stroke-linejoin:miter;stroke-opacity:1;filter:url(#filter3290);font-family:BadaBoom BB;-inkscape-font-specification:BadaBoom BB"
       x="-153.98482"
       y="347.64084"
       id="text3280"
       transform="matrix(1.5658369,0,0,1.1433337,-459.29517,5.783538)"
       sodipodi:linespacing="125%"><tspan
         sodipodi:role="line"
         id="tspan3282"
         x="-153.98482"
         y="347.64084"
         dx="0 0 0 0 1.8946103"
         style="fill:#000000;fill-opacity:1">ERROR!</tspan></text>
    <text
       sodipodi:linespacing="125%"
       transform="scale(1.170272,0.8545022)"
       id="text3268"
       y="469.77502"
       x="-600.06537"
       style="font-size:216.12644958px;font-style:normal;font-variant:normal;font-weight:normal;font-stretch:normal;text-align:start;line-height:125%;writing-mode:lr-tb;text-anchor:start;fill:url(#linearGradient3406);fill-opacity:1;stroke:none;stroke-width:1px;stroke-linecap:butt;stroke-linejoin:miter;stroke-opacity:1;font-family:BadaBoom BB;-inkscape-font-specification:BadaBoom BB"
       xml:space="preserve"><tspan
         style="fill:url(#linearGradient3406);fill-opacity:1"
         dx="0 0 0 0 2.5350106"
         y="469.77502"
         x="-600.06537"
         id="tspan3270"
         sodipodi:role="line">ERROR!</tspan></text>
    <g
       mask="url(#mask3357)"
       transform="matrix(2.1397335,0,0,1,-432.55776,-4)"
       id="g3310">
      <text
         xml:space="preserve"
         style="font-size:161.52804565px;font-style:normal;font-variant:normal;font-weight:normal;font-stretch:normal;text-align:start;line-height:125%;writing-mode:lr-tb;text-anchor:start;fill:#000000;fill-opacity:1;stroke:none;stroke-width:1px;stroke-linecap:butt;stroke-linejoin:miter;stroke-opacity:1;filter:url(#filter3290);font-family:BadaBoom BB;-inkscape-font-specification:BadaBoom BB"
         x="-153.98482"
         y="347.64084"
         id="text3300"
         transform="matrix(0.7317906,0,0,-1.1433337,-12.495672,809.64546)"
         sodipodi:linespacing="125%"><tspan
           sodipodi:role="line"
           id="tspan3302"
           x="-153.98482"
           y="347.64084"
           dx="0 0 0 0 1.8946103"
           style="fill:#000000;fill-opacity:1">ERROR!</tspan></text>
      <text
         sodipodi:linespacing="125%"
         transform="scale(0.8000313,-1.2499511)"
         id="text3304"
         y="-331.21704"
         x="-157.53796"
         style="font-size:147.75019836px;font-style:normal;font-variant:normal;font-weight:normal;font-stretch:normal;text-align:start;line-height:125%;writing-mode:lr-tb;text-anchor:start;fill:url(#linearGradient3316);fill-opacity:1;stroke:none;stroke-width:1px;stroke-linecap:butt;stroke-linejoin:miter;stroke-opacity:1;font-family:BadaBoom BB;-inkscape-font-specification:BadaBoom BB"
         xml:space="preserve"><tspan
           style="fill:url(#linearGradient3316);fill-opacity:1"
           dx="0 0 0 0 1.7330055"
           y="-331.21704"
           x="-157.53796"
           id="tspan3306"
           sodipodi:role="line">ERROR!</tspan></text>
    </g>
    <path
       sodipodi:nodetypes="ccccccccccccccccc"
       id="path3367"
       d="M -411.78123,218.875 C -421.57098,219.71775 -423.67117,225.47582 -425.02627,229.36387 C -427.95175,233.94582 -420.62719,238.67819 -425.00755,242.92412 C -425.00144,246.84517 -424.18582,248.02254 -431.57138,246.74059 C -441.88648,245.65774 -447.53493,250.07502 -450.7831,253.90664 C -456.73531,261.57575 -454.77308,269.89294 -452.74998,277.8125 C -450.80455,275.21426 -449.22128,268.65946 -447.03904,268.64844 C -445.16072,273.70799 -443.51698,266.14559 -436.12928,267.87812 C -428.7081,268.16041 -418.63884,265.20429 -419.10271,270.91032 C -419.88171,276.62146 -414.35494,266.39334 -415.27537,271.45703 C -414.70184,273.51938 -415.92715,282.63862 -413.39061,277 C -410.35899,272.36454 -407.96333,267.68333 -408.49578,262.79625 C -407.64859,257.82659 -406.91057,251.90491 -418.50993,249.61382 C -428.15457,249.44989 -420.78596,239.65352 -416.98116,244.96182 C -407.67007,248.25302 -400.59125,241.88325 -399.4868,238.18584 C -397.2568,232.17922 -397.40255,225.15402 -405.95216,220.19331 C -407.47761,219.45998 -409.51477,218.8654 -411.78123,218.875 z"
       style="fill:#73d216;fill-opacity:1;stroke:#000000;stroke-width:0.99999994;stroke-linecap:square;stroke-linejoin:miter;stroke-miterlimit:4;stroke-dasharray:none;stroke-dashoffset:0;stroke-opacity:1" />
    <path
       transform="translate(20.000005,2)"
       d="M -421.11473,230.42311 A 10.679156,10.679156 0 1 1 -442.47304,230.42311 A 10.679156,10.679156 0 1 1 -421.11473,230.42311 z"
       sodipodi:ry="10.679156"
       sodipodi:rx="10.679156"
       sodipodi:cy="230.42311"
       sodipodi:cx="-431.79388"
       id="path3363"
       style="fill:#ffffff;fill-opacity:1;stroke:#000000;stroke-width:1;stroke-linecap:square;stroke-linejoin:miter;stroke-miterlimit:4;stroke-dasharray:none;stroke-dashoffset:0;stroke-opacity:1"
       sodipodi:type="arc" />
    <path
       sodipodi:type="arc"
       style="fill:#000000;fill-opacity:1;stroke:#000000;stroke-width:5.80398369;stroke-linecap:square;stroke-linejoin:miter;stroke-miterlimit:4;stroke-dasharray:none;stroke-dashoffset:0;stroke-opacity:1"
       id="path3365"
       sodipodi:cx="-431.79388"
       sodipodi:cy="230.42311"
       sodipodi:rx="10.679156"
       sodipodi:ry="10.679156"
       d="M -421.11473,230.42311 A 10.679156,10.679156 0 1 1 -442.47304,230.42311 A 10.679156,10.679156 0 1 1 -421.11473,230.42311 z"
       transform="matrix(0.1722954,0,0,0.1722954,-336.51717,191.60282)" />
    <path
       transform="translate(8.0000371,2)"
       d="M -446.23583,258.88702 A 1.2884576,1.2884576 0 1 1 -448.81275,258.88702 A 1.2884576,1.2884576 0 1 1 -446.23583,258.88702 z"
       sodipodi:ry="1.2884576"
       sodipodi:rx="1.2884576"
       sodipodi:cy="258.88702"
       sodipodi:cx="-447.52429"
       id="path3374"
       style="fill:#000000;fill-opacity:1;stroke:#000000;stroke-width:1;stroke-linecap:square;stroke-linejoin:miter;stroke-miterlimit:4;stroke-dasharray:none;stroke-dashoffset:0;stroke-opacity:1"
       sodipodi:type="arc" />
    <path
       sodipodi:type="arc"
       style="fill:#000000;fill-opacity:1;stroke:#000000;stroke-width:1;stroke-linecap:square;stroke-linejoin:miter;stroke-miterlimit:4;stroke-dasharray:none;stroke-dashoffset:0;stroke-opacity:1"
       id="path3376"
       sodipodi:cx="-447.52429"
       sodipodi:cy="258.88702"
       sodipodi:rx="1.2884576"
       sodipodi:ry="1.2884576"
       d="M -446.23583,258.88702 A 1.2884576,1.2884576 0 1 1 -448.81275,258.88702 A 1.2884576,1.2884576 0 1 1 -446.23583,258.88702 z"
       transform="translate(24.000023,2)" />
    <path
       id="path3378"
       d="M -442.31592,256.16268 C -446.18129,258.52486 -445.32232,261.746 -445.32232,261.746"
       style="fill:none;fill-rule:evenodd;stroke:#000000;stroke-width:1px;stroke-linecap:butt;stroke-linejoin:miter;stroke-opacity:1" />
    <path
       style="fill:none;fill-rule:evenodd;stroke:#000000;stroke-width:1px;stroke-linecap:butt;stroke-linejoin:miter;stroke-opacity:1"
       d="M -421.40364,256.16268 C -417.53827,258.52486 -418.39724,261.746 -418.39724,261.746"
       id="path3380" />
    <path
       id="path3382"
       d="M -466.9311,266.17648 C -465.98264,268.64251 -465.03417,271.10853 -464.0857,273.57455 C -463.51662,271.48792 -462.94754,269.4013 -462.37846,267.31467 C -461.61969,269.4013 -460.8609,271.48792 -460.10212,273.57455 C -459.53305,271.58277 -458.96398,269.59099 -458.39491,267.59921 C -459.2527,266.04648 -459.92773,264.42043 -461.77629,263.0449 C -463.78206,262.26878 -464.89155,263.95931 -465.44412,264.63921 C -465.86492,265.16544 -466.22107,265.7152 -466.9311,266.17648 z"
       style="fill:#73d216;fill-opacity:1;fill-rule:evenodd;stroke:#000000;stroke-width:1px;stroke-linecap:butt;stroke-linejoin:miter;stroke-opacity:1" />
    <path
       style="fill:#73d216;fill-opacity:1;fill-rule:evenodd;stroke:#000000;stroke-width:1px;stroke-linecap:butt;stroke-linejoin:miter;stroke-opacity:1"
       d="M -400.99162,268.20476 C -402.23527,270.5359 -403.47891,272.86703 -404.72256,275.19817 C -402.77249,274.26269 -400.82243,273.32721 -398.87237,272.39173 C -399.95333,274.33113 -401.03427,276.27055 -402.11523,278.20995 C -400.23689,277.33654 -398.35854,276.46313 -396.48019,275.58972 C -395.8677,273.9249 -395.08014,272.35027 -395.25009,270.05237 C -395.97611,268.02793 -397.98041,268.29558 -398.85612,268.32282 C -399.52939,268.3491 -400.17815,268.43965 -400.99162,268.20476 z"
       id="path3388" />
    <rect
       inkscape:export-ydpi="19.37974"
       inkscape:export-xdpi="19.37974"
       inkscape:export-filename="/home/danigmArch/Documentos/Projects/cusl3-geco/src/gecoc/web-geco/static/images/okbutton.png"
       ry="0"
       rx="0"
       y="281.90924"
       x="650.35297"
       height="156.89272"
       width="557.28308"
       id="rect2482"
       style="fill:#ffffff;fill-opacity:1;fill-rule:nonzero;stroke:none;stroke-width:1.00000036;stroke-linecap:butt;stroke-linejoin:miter;stroke-miterlimit:4;stroke-dasharray:none;stroke-opacity:0.15384617" />
    <rect
       style="fill:#808080;fill-opacity:1;fill-rule:nonzero;stroke:none;stroke-width:1;stroke-linecap:butt;stroke-linejoin:miter;stroke-miterlimit:4;stroke-dasharray:none;stroke-opacity:1;filter:url(#filter3295)"
       id="rect2484"
       width="538.19916"
       height="126.31206"
       x="662.4101"
       y="298.32043"
       ry="23.797924"
       rx="23.797922" />
    <rect
       rx="23.797922"
       ry="23.797924"
       y="296.32043"
       x="660.4101"
       height="126.31206"
       width="538.19916"
       id="rect2486"
       style="fill:url(#linearGradient2492);fill-opacity:1;fill-rule:nonzero;stroke:none;stroke-width:1;stroke-linecap:butt;stroke-linejoin:miter;stroke-miterlimit:4;stroke-dasharray:none;stroke-opacity:1" />
    <text
       sodipodi:linespacing="100%"
       id="text2488"
       y="382.57376"
       x="928.36511"
       style="font-size:77.04286957px;font-style:normal;font-variant:normal;font-weight:normal;font-stretch:normal;text-align:center;line-height:100%;writing-mode:lr-tb;text-anchor:middle;fill:#ffffff;fill-opacity:1;stroke:none;stroke-width:1px;stroke-linecap:butt;stroke-linejoin:miter;stroke-opacity:0.15384617;font-family:Orange;-inkscape-font-specification:Orange"
       xml:space="preserve"><tspan
         id="tspan2490"
         y="382.57376"
         x="928.36511"
         sodipodi:role="line">Vale!</tspan></text>
  </g>
</svg>
